<?xml version="1.0" encoding="utf-8"?>
<!-- Generator: Adobe Illustrator 23.0.1, SVG Export Plug-In . SVG Version: 6.00 Build 0)  -->
<svg version="1.1" id="Layer_1" xmlns="http://www.w3.org/2000/svg" xmlns:xlink="http://www.w3.org/1999/xlink" x="0px" y="0px"
	 viewBox="0 0 164 235" style="enable-background:new 0 0 164 235;" xml:space="preserve">
<style type="text/css">
	.st0{fill:#FFFFFF;}
</style>
<g>
	<path class="st0" d="M67.65,89.83c9.66-1.98,23.48-3.07,36.65-3.07c20.41,0,33.58,3.73,42.8,12.07
		c7.46,6.58,11.63,16.68,11.63,28.09c0,19.53-12.29,32.48-27.87,37.75v0.66c11.41,3.95,18.22,14.49,21.73,29.85
		c4.83,20.63,8.34,34.9,11.41,40.6h-19.75c-2.41-4.17-5.71-16.9-9.88-35.34c-4.39-20.41-12.29-28.09-29.63-28.75h-18v64.09H67.65
		V89.83z M86.74,157.21h19.53c20.41,0,33.36-11.19,33.36-28.09c0-19.09-13.83-27.44-34.02-27.65c-9.22,0-15.8,0.88-18.88,1.76
		V157.21z"/>
</g>
<rect class="st0" width="16.1" height="60.31"/>
<rect x="46.6" class="st0" width="16.1" height="60.31"/>
<rect x="93.46" class="st0" width="16.1" height="60.31"/>
<rect x="-21.43" y="149.41" transform="matrix(6.033552e-15 1 -1 6.033552e-15 213.5697 104.7667)" class="st0" width="151.66" height="19.52"/>
<path class="st0" d="M94.56,84.52H15c-8.28,0-15-6.72-15-15l0-2.49h109.56v2.49C109.56,77.8,102.85,84.52,94.56,84.52z"/>
</svg>
