<?xml version="1.0" encoding="utf-8"?>
<!-- Generator: Adobe Illustrator 23.0.1, SVG Export Plug-In . SVG Version: 6.00 Build 0)  -->
<svg version="1.1" id="Layer_1" xmlns="http://www.w3.org/2000/svg" xmlns:xlink="http://www.w3.org/1999/xlink" x="0px" y="0px"
	 viewBox="0 0 1222.93 326.83" style="enable-background:new 0 0 1222.93 326.83;" xml:space="preserve">
<style type="text/css">
	.st0{fill:#FFFFFF;}
	.st1{fill:none;}
</style>
<g>
	<path class="st0" d="M238.15,327.39l-47.78-67.2c-5.38,0.6-10.75,0.9-16.72,0.9H117.5v66.3H95.4V118.34h78.24
		c53.16,0,85.41,26.88,85.41,71.67c0,32.85-17.32,55.85-47.78,65.7l51.07,71.68H238.15z M236.95,190.02
		c0-33.45-22.1-52.56-63.91-52.56H117.5v104.82h55.55C214.85,242.28,236.95,222.87,236.95,190.02z"/>
</g>
<rect class="st0" width="21.91" height="82.06"/>
<rect x="63.41" class="st0" width="21.91" height="82.06"/>
<rect x="127.17" class="st0" width="21.91" height="82.06"/>
<rect x="-15.39" y="185.45" transform="matrix(-1.836970e-16 1 -1 -1.836970e-16 272.7513 124.7019)" class="st0" width="178.82" height="26.56"/>
<path class="st0" d="M134.08,111.56H15c-8.28,0-15-6.72-15-15l0-8.8h149.08v8.8C149.08,104.85,142.37,111.56,134.08,111.56z"/>
<rect x="275.02" y="0.83" class="st0" width="23" height="326"/>
<rect x="501.92" y="172.57" class="st1" width="24.18" height="5.65"/>
<g>
	<path class="st0" d="M345.43,146.24h-22.4v-13.2h61v13.2h-22.4v56.8h-16.2V146.24z"/>
	<path class="st0" d="M456.93,133.04v70h-16.2v-28.7h-31.8v28.7h-16.2v-70h16.2v27.6h31.8v-27.6H456.93z"/>
	<path class="st0" d="M527.73,190.04v13h-54.2v-70h52.9v13h-36.8v15.2h32.5v12.6h-32.5v16.2H527.73z"/>
</g>
<g>
	<path class="st0" d="M596.83,203.04l-16-22.5c-1.8,0.2-3.6,0.3-5.6,0.3h-18.8v22.2h-7.4v-70h26.2c17.8,0,28.6,9,28.6,24
		c0,11-5.8,18.7-16,22l17.1,24H596.83z M596.43,157.04c0-11.2-7.4-17.6-21.4-17.6h-18.6v35.1h18.6
		C589.03,174.54,596.43,168.04,596.43,157.04z"/>
	<path class="st0" d="M670.83,196.64v6.4h-49.5v-70h48v6.4h-40.6v24.9h36.2v6.3h-36.2v26H670.83z"/>
	<path class="st0" d="M681.53,194.54l2.9-5.7c5,4.9,13.9,8.5,23.1,8.5c13.1,0,18.8-5.5,18.8-12.4c0-19.2-43.1-7.4-43.1-33.3
		c0-10.3,8-19.2,25.8-19.2c7.9,0,16.1,2.3,21.7,6.2l-2.5,5.9c-6-3.9-13-5.8-19.2-5.8c-12.8,0-18.5,5.7-18.5,12.7
		c0,19.2,43.1,7.6,43.1,33.1c0,10.3-8.2,19.1-26.1,19.1C697.03,203.64,686.73,199.94,681.53,194.54z"/>
	<path class="st0" d="M762.33,139.44h-24.6v-6.4h56.6v6.4h-24.6v63.6h-7.4V139.44z"/>
	<path class="st0" d="M846.53,184.34h-39l-8.4,18.7h-7.7l32-70h7.3l32,70h-7.8L846.53,184.34z M843.83,178.34l-16.8-37.6l-16.8,37.6
		H843.83z"/>
	<path class="st0" d="M872.23,173.14v-40.1h7.4v39.8c0,16.6,7.8,24.2,21.4,24.2c13.7,0,21.5-7.6,21.5-24.2v-39.8h7.2v40.1
		c0,20.1-10.8,30.5-28.7,30.5S872.23,193.24,872.23,173.14z"/>
	<path class="st0" d="M999.83,203.04l-16-22.5c-1.8,0.2-3.6,0.3-5.6,0.3h-18.8v22.2h-7.4v-70h26.2c17.8,0,28.6,9,28.6,24
		c0,11-5.8,18.7-16,22l17.1,24H999.83z M999.43,157.04c0-11.2-7.4-17.6-21.4-17.6h-18.6v35.1h18.6
		C992.03,174.54,999.43,168.04,999.43,157.04z"/>
	<path class="st0" d="M1068.23,184.34h-39l-8.4,18.7h-7.7l32-70h7.3l32,70h-7.8L1068.23,184.34z M1065.53,178.34l-16.8-37.6
		l-16.8,37.6H1065.53z"/>
	<path class="st0" d="M1154.53,133.04v70h-6.1l-45-56.8v56.8h-7.4v-70h6.1l45.1,56.8v-56.8H1154.53z"/>
	<path class="st0" d="M1190.93,139.44h-24.6v-6.4h56.6v6.4h-24.6v63.6h-7.4V139.44z"/>
</g>
<g>
	<path class="st0" d="M757.69,226.48v8.8h11.58v2.05h-11.58v9.5h-2.37v-22.4h15.36v2.05H757.69z"/>
	<path class="st0" d="M783.26,229.87v2.21c-0.19,0-0.38-0.03-0.54-0.03c-3.52,0-5.66,2.24-5.66,6.21v8.58h-2.27V230h2.18v3.3
		C778.01,231.05,780.15,229.87,783.26,229.87z"/>
	<path class="st0" d="M801.85,239.11h-14.08c0.26,3.52,2.94,5.86,6.62,5.86c2.05,0,3.87-0.74,5.15-2.21l1.28,1.47
		c-1.5,1.79-3.84,2.75-6.5,2.75c-5.25,0-8.83-3.58-8.83-8.58c0-4.99,3.49-8.54,8.22-8.54c4.74,0,8.16,3.49,8.16,8.54
		C801.88,238.6,801.85,238.86,801.85,239.11z M787.77,237.42h11.94c-0.29-3.3-2.69-5.6-5.98-5.6
		C790.46,231.82,788.06,234.12,787.77,237.42z"/>
	<path class="st0" d="M804.19,244.91l1.02-1.79c1.34,1.06,3.62,1.89,5.98,1.89c3.2,0,4.51-1.09,4.51-2.75
		c0-4.38-10.91-0.93-10.91-7.58c0-2.75,2.37-4.8,6.66-4.8c2.18,0,4.54,0.61,5.95,1.57l-0.99,1.82c-1.47-1.02-3.23-1.44-4.96-1.44
		c-3.04,0-4.38,1.18-4.38,2.78c0,4.54,10.91,1.12,10.91,7.58c0,2.91-2.56,4.8-6.94,4.8C808.25,246.99,805.56,246.09,804.19,244.91z"
		/>
	<path class="st0" d="M837.66,237.07v9.76h-2.27v-9.54c0-3.55-1.86-5.38-5.06-5.38c-3.62,0-5.89,2.24-5.89,6.08v8.83h-2.27v-23.74
		h2.27v9.86c1.25-1.95,3.46-3.07,6.3-3.07C834.84,229.87,837.66,232.24,837.66,237.07z"/>
	<path class="st0" d="M855.06,226.48v8.8h11.58v2.05h-11.58v9.5h-2.37v-22.4h15.36v2.05H855.06z"/>
	<path class="st0" d="M870.2,238.41c0-4.99,3.65-8.54,8.58-8.54s8.54,3.55,8.54,8.54c0,4.99-3.62,8.58-8.54,8.58
		S870.2,243.4,870.2,238.41z M885.02,238.41c0-3.94-2.66-6.56-6.24-6.56c-3.58,0-6.27,2.62-6.27,6.56c0,3.94,2.69,6.56,6.27,6.56
		C882.36,244.97,885.02,242.35,885.02,238.41z"/>
	<path class="st0" d="M890.26,238.41c0-4.99,3.65-8.54,8.58-8.54s8.54,3.55,8.54,8.54c0,4.99-3.62,8.58-8.54,8.58
		S890.26,243.4,890.26,238.41z M905.08,238.41c0-3.94-2.66-6.56-6.24-6.56c-3.58,0-6.27,2.62-6.27,6.56c0,3.94,2.69,6.56,6.27,6.56
		C902.42,244.97,905.08,242.35,905.08,238.41z"/>
	<path class="st0" d="M927.38,223.08v23.74h-2.18v-3.33c-1.38,2.27-3.71,3.49-6.5,3.49c-4.8,0-8.38-3.49-8.38-8.58
		c0-5.09,3.58-8.54,8.38-8.54c2.69,0,4.99,1.15,6.4,3.33v-10.11H927.38z M925.14,238.41c0-3.94-2.69-6.56-6.24-6.56
		c-3.58,0-6.27,2.62-6.27,6.56c0,3.94,2.69,6.56,6.27,6.56C922.46,244.97,925.14,242.35,925.14,238.41z"/>
	<path class="st0" d="M932.25,245.23c0-0.99,0.77-1.73,1.7-1.73s1.73,0.74,1.73,1.73c0,0.99-0.8,1.76-1.73,1.76
		S932.25,246.22,932.25,245.23z"/>
	<path class="st0" d="M965.21,244.78v2.05h-15.84v-22.4h15.36v2.05h-12.99v7.97h11.58v2.02h-11.58v8.32H965.21z"/>
	<path class="st0" d="M980.54,246.83l-5.34-7.04l-5.38,7.04h-2.56l6.66-8.64l-6.34-8.19h2.56l5.06,6.59l5.06-6.59h2.5l-6.33,8.19
		l6.72,8.64H980.54z"/>
	<path class="st0" d="M984.6,238.41c0-5.02,3.65-8.54,8.67-8.54c2.85,0,5.25,1.12,6.59,3.33l-1.7,1.15c-1.15-1.7-2.94-2.5-4.9-2.5
		c-3.68,0-6.37,2.62-6.37,6.56c0,3.97,2.69,6.56,6.37,6.56c1.95,0,3.74-0.77,4.9-2.46l1.7,1.15c-1.34,2.18-3.74,3.33-6.59,3.33
		C988.25,246.99,984.6,243.43,984.6,238.41z"/>
	<path class="st0" d="M1018.68,239.11h-14.08c0.26,3.52,2.94,5.86,6.62,5.86c2.05,0,3.87-0.74,5.15-2.21l1.28,1.47
		c-1.5,1.79-3.84,2.75-6.5,2.75c-5.25,0-8.83-3.58-8.83-8.58c0-4.99,3.49-8.54,8.22-8.54s8.16,3.49,8.16,8.54
		C1018.71,238.6,1018.68,238.86,1018.68,239.11z M1004.6,237.42h11.93c-0.29-3.3-2.69-5.6-5.98-5.6
		C1007.29,231.82,1004.89,234.12,1004.6,237.42z"/>
	<path class="st0" d="M1023.35,223.08h2.27v23.74h-2.27V223.08z"/>
	<path class="st0" d="M1031.96,223.08h2.27v23.74h-2.27V223.08z"/>
	<path class="st0" d="M1055.22,239.11h-14.08c0.26,3.52,2.94,5.86,6.62,5.86c2.05,0,3.87-0.74,5.15-2.21l1.28,1.47
		c-1.5,1.79-3.84,2.75-6.5,2.75c-5.25,0-8.83-3.58-8.83-8.58c0-4.99,3.49-8.54,8.22-8.54s8.16,3.49,8.16,8.54
		C1055.25,238.6,1055.22,238.86,1055.22,239.11z M1041.14,237.42h11.93c-0.29-3.3-2.69-5.6-5.98-5.6
		C1043.83,231.82,1041.43,234.12,1041.14,237.42z"/>
	<path class="st0" d="M1075.38,237.07v9.76h-2.27v-9.54c0-3.55-1.86-5.38-5.06-5.38c-3.62,0-5.89,2.24-5.89,6.08v8.83h-2.27V230
		h2.18v3.1c1.22-2.05,3.49-3.23,6.4-3.23C1072.57,229.87,1075.38,232.24,1075.38,237.07z"/>
	<path class="st0" d="M1090.42,245.8c-0.9,0.8-2.24,1.18-3.55,1.18c-3.17,0-4.93-1.79-4.93-4.9v-10.18h-3.01V230h3.01v-3.68h2.27
		V230h5.12v1.92h-5.12v10.05c0,1.98,1.02,3.07,2.91,3.07c0.93,0,1.86-0.29,2.5-0.86L1090.42,245.8z"/>
	<path class="st0" d="M1101.27,244.11l0.93-1.82c1.6,1.57,4.45,2.72,7.39,2.72c4.19,0,6.02-1.76,6.02-3.97
		c0-6.14-13.79-2.37-13.79-10.66c0-3.29,2.56-6.14,8.26-6.14c2.53,0,5.15,0.74,6.94,1.98l-0.8,1.89c-1.92-1.25-4.16-1.86-6.14-1.86
		c-4.1,0-5.92,1.82-5.92,4.06c0,6.14,13.79,2.43,13.79,10.59c0,3.3-2.62,6.11-8.35,6.11
		C1106.23,247.02,1102.93,245.83,1101.27,244.11z"/>
	<path class="st0" d="M1137.27,239.11h-14.08c0.26,3.52,2.94,5.86,6.62,5.86c2.05,0,3.87-0.74,5.15-2.21l1.28,1.47
		c-1.5,1.79-3.84,2.75-6.5,2.75c-5.25,0-8.83-3.58-8.83-8.58c0-4.99,3.49-8.54,8.22-8.54s8.16,3.49,8.16,8.54
		C1137.3,238.6,1137.27,238.86,1137.27,239.11z M1123.19,237.42h11.93c-0.29-3.3-2.69-5.6-5.98-5.6
		C1125.88,231.82,1123.48,234.12,1123.19,237.42z"/>
	<path class="st0" d="M1150.42,229.87v2.21c-0.19,0-0.38-0.03-0.54-0.03c-3.52,0-5.66,2.24-5.66,6.21v8.58h-2.27V230h2.18v3.3
		C1145.17,231.05,1147.32,229.87,1150.42,229.87z"/>
	<path class="st0" d="M1169.4,230l-7.49,16.83h-2.34l-7.46-16.83h2.37l6.3,14.33l6.37-14.33H1169.4z"/>
	<path class="st0" d="M1172.09,224.68c0-0.86,0.74-1.6,1.66-1.6c0.93,0,1.66,0.7,1.66,1.57c0,0.93-0.7,1.66-1.66,1.66
		C1172.82,226.32,1172.09,225.58,1172.09,224.68z M1172.6,230h2.27v16.83h-2.27V230z"/>
	<path class="st0" d="M1179.51,238.41c0-5.02,3.65-8.54,8.67-8.54c2.85,0,5.25,1.12,6.59,3.33l-1.7,1.15c-1.15-1.7-2.94-2.5-4.9-2.5
		c-3.68,0-6.37,2.62-6.37,6.56c0,3.97,2.69,6.56,6.37,6.56c1.95,0,3.74-0.77,4.9-2.46l1.7,1.15c-1.34,2.18-3.74,3.33-6.59,3.33
		C1183.16,246.99,1179.51,243.43,1179.51,238.41z"/>
	<path class="st0" d="M1213.59,239.11h-14.08c0.26,3.52,2.94,5.86,6.62,5.86c2.05,0,3.87-0.74,5.15-2.21l1.28,1.47
		c-1.5,1.79-3.84,2.75-6.5,2.75c-5.25,0-8.83-3.58-8.83-8.58c0-4.99,3.49-8.54,8.22-8.54s8.16,3.49,8.16,8.54
		C1213.62,238.6,1213.59,238.86,1213.59,239.11z M1199.51,237.42h11.93c-0.29-3.3-2.69-5.6-5.98-5.6
		C1202.2,231.82,1199.8,234.12,1199.51,237.42z"/>
	<path class="st0" d="M1216.79,245.23c0-0.99,0.77-1.73,1.7-1.73s1.73,0.74,1.73,1.73c0,0.99-0.8,1.76-1.73,1.76
		S1216.79,246.22,1216.79,245.23z"/>
</g>
</svg>
