<?xml version="1.0" encoding="utf-8"?>
<!-- Generator: Adobe Illustrator 23.0.1, SVG Export Plug-In . SVG Version: 6.00 Build 0)  -->
<svg version="1.1" id="Layer_1" xmlns="http://www.w3.org/2000/svg" xmlns:xlink="http://www.w3.org/1999/xlink" x="0px" y="0px"
	 viewBox="0 0 1500 1500" style="enable-background:new 0 0 1500 1500;" xml:space="preserve">
<style type="text/css">
	.st0{fill:#E6E6E6;}
</style>
<g>
	<path class="st0" d="M769.38,644.69c31.31,10.32,73.27,30.12,111.49,52.01c59.24,33.93,91.26,66.65,104.15,106.18
		c10.71,31.52,6.03,67.75-12.94,100.88c-32.47,56.7-89.67,73.85-143.66,63.23l-1.09,1.91c26.56,30.44,28.79,72.33,13.45,122.76
		c-20.28,67.91-33.8,115.15-34.37,136.82l-57.33-32.84c-0.07-16.12,11.53-58.54,30.07-118.98c21.19-66.54,11.03-101.97-38.2-132.71
		l-52.24-29.92l-106.54,186.01l-55.42-31.74L769.38,644.69z M712.8,872l56.7,32.47c59.24,33.93,115.44,22.97,143.53-26.08
		c31.74-55.42,5.47-102.61-52.77-136.82c-26.76-15.32-47.33-23.72-57.7-26.28L712.8,872z"/>
</g>
<rect x="668.68" y="271.56" transform="matrix(0.8678 0.497 -0.497 0.8678 277.078 -296.467)" class="st0" width="53.87" height="201.71"/>
<rect x="803.94" y="349.02" transform="matrix(0.8678 0.497 -0.497 0.8678 333.4641 -353.443)" class="st0" width="53.87" height="201.71"/>
<rect x="939.94" y="426.91" transform="matrix(0.8678 0.497 -0.497 0.8678 390.161 -410.7332)" class="st0" width="53.87" height="201.71"/>
<rect x="359.53" y="792.73" transform="matrix(-0.497 0.8678 -0.8678 -0.497 1636.6416 702.0392)" class="st0" width="510.63" height="65.28"/>
<path class="st0" d="M886.85,691.49L594.89,524.27c-7.19-4.12-9.68-13.28-5.56-20.47l21.62-37.75l318,182.13l-21.62,37.75
	C903.21,693.12,894.04,695.61,886.85,691.49z"/>
</svg>
