<?xml version="1.0" encoding="utf-8"?>
<!-- Generator: Adobe Illustrator 23.0.1, SVG Export Plug-In . SVG Version: 6.00 Build 0)  -->
<svg version="1.1" id="Layer_1" xmlns="http://www.w3.org/2000/svg" xmlns:xlink="http://www.w3.org/1999/xlink" x="0px" y="0px"
	 viewBox="0 0 1202.9 334" style="enable-background:new 0 0 1202.9 334;" xml:space="preserve">
<style type="text/css">
	.st0{fill:#FFFFFF;}
</style>
<rect x="257" class="st0" width="21" height="334"/>
<g>
	<path class="st0" d="M325.4,145.4H303v-13.2h61v13.2h-22.4v56.8h-16.2V145.4z"/>
	<path class="st0" d="M436.9,132.2v70h-16.2v-28.7h-31.8v28.7h-16.2v-70h16.2v27.6h31.8v-27.6H436.9z"/>
	<path class="st0" d="M507.7,189.2v13h-54.2v-70h52.9v13h-36.8v15.2h32.5V173h-32.5v16.2H507.7z"/>
</g>
<g>
	<path class="st0" d="M576.8,202.2l-16-22.5c-1.8,0.2-3.6,0.3-5.6,0.3h-18.8v22.2H529v-70h26.2c17.8,0,28.6,9,28.6,24
		c0,11-5.8,18.7-16,22l17.1,24H576.8z M576.4,156.2c0-11.2-7.4-17.6-21.4-17.6h-18.6v35.1H555C569,173.7,576.4,167.2,576.4,156.2z"
		/>
	<path class="st0" d="M650.8,195.8v6.4h-49.5v-70h48v6.4h-40.6v24.9h36.2v6.3h-36.2v26L650.8,195.8L650.8,195.8z"/>
	<path class="st0" d="M661.5,193.7l2.9-5.7c5,4.9,13.9,8.5,23.1,8.5c13.1,0,18.8-5.5,18.8-12.4c0-19.2-43.1-7.4-43.1-33.3
		c0-10.3,8-19.2,25.8-19.2c7.9,0,16.1,2.3,21.7,6.2l-2.5,5.9c-6-3.9-13-5.8-19.2-5.8c-12.8,0-18.5,5.7-18.5,12.7
		c0,19.2,43.1,7.6,43.1,33.1c0,10.3-8.2,19.1-26.1,19.1C677,202.8,666.7,199.1,661.5,193.7z"/>
	<path class="st0" d="M742.3,138.6h-24.6v-6.4h56.6v6.4h-24.6v63.6h-7.4V138.6z"/>
	<path class="st0" d="M826.5,183.5h-39l-8.4,18.7h-7.7l32-70h7.3l32,70h-7.8L826.5,183.5z M823.8,177.5L807,139.9l-16.8,37.6
		L823.8,177.5L823.8,177.5z"/>
	<path class="st0" d="M852.2,172.3v-40.1h7.4V172c0,16.6,7.8,24.2,21.4,24.2c13.7,0,21.5-7.6,21.5-24.2v-39.8h7.2v40.1
		c0,20.1-10.8,30.5-28.7,30.5S852.2,192.4,852.2,172.3z"/>
	<path class="st0" d="M979.8,202.2l-16-22.5c-1.8,0.2-3.6,0.3-5.6,0.3h-18.8v22.2H932v-70h26.2c17.8,0,28.6,9,28.6,24
		c0,11-5.8,18.7-16,22l17.1,24H979.8z M979.4,156.2c0-11.2-7.4-17.6-21.4-17.6h-18.6v35.1H958C972,173.7,979.4,167.2,979.4,156.2z"
		/>
	<path class="st0" d="M1048.2,183.5h-39l-8.4,18.7h-7.7l32-70h7.3l32,70h-7.8L1048.2,183.5z M1045.5,177.5l-16.8-37.6l-16.8,37.6
		L1045.5,177.5L1045.5,177.5z"/>
	<path class="st0" d="M1134.5,132.2v70h-6.1l-45-56.8v56.8h-7.4v-70h6.1l45.1,56.8v-56.8H1134.5z"/>
	<path class="st0" d="M1170.9,138.6h-24.6v-6.4h56.6v6.4h-24.6v63.6h-7.4V138.6z"/>
</g>
<g>
	<path class="st0" d="M737.7,225.6v8.8h11.6v2.1h-11.6v9.5h-2.4v-22.4h15.4v2.1L737.7,225.6L737.7,225.6z"/>
	<path class="st0" d="M763.3,229v2.2c-0.2,0-0.4,0-0.5,0c-3.5,0-5.7,2.2-5.7,6.2v8.6h-2.3v-16.8h2.2v3.3
		C758,230.2,760.2,229,763.3,229z"/>
	<path class="st0" d="M781.8,238.3h-14.1c0.3,3.5,2.9,5.9,6.6,5.9c2,0,3.9-0.7,5.2-2.2l1.3,1.5c-1.5,1.8-3.8,2.8-6.5,2.8
		c-5.3,0-8.8-3.6-8.8-8.6c0-5,3.5-8.5,8.2-8.5c4.7,0,8.2,3.5,8.2,8.5C781.9,237.8,781.8,238,781.8,238.3z M767.8,236.6h11.9
		c-0.3-3.3-2.7-5.6-6-5.6C770.5,231,768.1,233.3,767.8,236.6z"/>
	<path class="st0" d="M784.2,244.1l1-1.8c1.3,1.1,3.6,1.9,6,1.9c3.2,0,4.5-1.1,4.5-2.8c0-4.4-10.9-0.9-10.9-7.6
		c0-2.8,2.4-4.8,6.7-4.8c2.2,0,4.5,0.6,6,1.6l-1,1.8c-1.5-1-3.2-1.4-5-1.4c-3,0-4.4,1.2-4.4,2.8c0,4.5,10.9,1.1,10.9,7.6
		c0,2.9-2.6,4.8-6.9,4.8C788.3,246.2,785.6,245.3,784.2,244.1z"/>
	<path class="st0" d="M817.7,236.2v9.8h-2.3v-9.5c0-3.6-1.9-5.4-5.1-5.4c-3.6,0-5.9,2.2-5.9,6.1v8.8h-2.3v-23.7h2.3v9.9
		c1.3-1.9,3.5-3.1,6.3-3.1C814.8,229,817.7,231.4,817.7,236.2z"/>
	<path class="st0" d="M835.1,225.6v8.8h11.6v2.1h-11.6v9.5h-2.4v-22.4H848v2.1L835.1,225.6L835.1,225.6z"/>
	<path class="st0" d="M850.2,237.6c0-5,3.7-8.5,8.6-8.5s8.5,3.6,8.5,8.5c0,5-3.6,8.6-8.5,8.6S850.2,242.6,850.2,237.6z M865,237.6
		c0-3.9-2.7-6.6-6.2-6.6s-6.3,2.6-6.3,6.6s2.7,6.6,6.3,6.6C862.4,244.1,865,241.5,865,237.6z"/>
	<path class="st0" d="M870.3,237.6c0-5,3.7-8.5,8.6-8.5s8.5,3.6,8.5,8.5c0,5-3.6,8.6-8.5,8.6S870.3,242.6,870.3,237.6z M885.1,237.6
		c0-3.9-2.7-6.6-6.2-6.6s-6.3,2.6-6.3,6.6s2.7,6.6,6.3,6.6C882.4,244.1,885.1,241.5,885.1,237.6z"/>
	<path class="st0" d="M907.4,222.3V246h-2.2v-3.3c-1.4,2.3-3.7,3.5-6.5,3.5c-4.8,0-8.4-3.5-8.4-8.6s3.6-8.5,8.4-8.5
		c2.7,0,5,1.1,6.4,3.3v-10.1L907.4,222.3L907.4,222.3z M905.1,237.6c0-3.9-2.7-6.6-6.2-6.6c-3.6,0-6.3,2.6-6.3,6.6s2.7,6.6,6.3,6.6
		C902.5,244.1,905.1,241.5,905.1,237.6z"/>
	<path class="st0" d="M912.3,244.4c0-1,0.8-1.7,1.7-1.7s1.7,0.7,1.7,1.7c0,1-0.8,1.8-1.7,1.8S912.3,245.4,912.3,244.4z"/>
	<path class="st0" d="M945.2,243.9v2.1h-15.8v-22.4h15.4v2.1h-13v8h11.6v2h-11.6v8.3L945.2,243.9L945.2,243.9z"/>
	<path class="st0" d="M960.5,246l-5.3-7l-5.4,7h-2.6l6.7-8.6l-6.3-8.2h2.6l5.1,6.6l5.1-6.6h2.5l-6.3,8.2l6.7,8.6H960.5z"/>
	<path class="st0" d="M964.6,237.6c0-5,3.7-8.5,8.7-8.5c2.8,0,5.3,1.1,6.6,3.3l-1.7,1.1c-1.2-1.7-2.9-2.5-4.9-2.5
		c-3.7,0-6.4,2.6-6.4,6.6c0,4,2.7,6.6,6.4,6.6c2,0,3.7-0.8,4.9-2.5l1.7,1.1c-1.3,2.2-3.7,3.3-6.6,3.3
		C968.3,246.2,964.6,242.6,964.6,237.6z"/>
	<path class="st0" d="M998.7,238.3h-14.1c0.3,3.5,2.9,5.9,6.6,5.9c2,0,3.9-0.7,5.2-2.2l1.3,1.5c-1.5,1.8-3.8,2.8-6.5,2.8
		c-5.3,0-8.8-3.6-8.8-8.6c0-5,3.5-8.5,8.2-8.5s8.2,3.5,8.2,8.5C998.7,237.8,998.7,238,998.7,238.3z M984.6,236.6h11.9
		c-0.3-3.3-2.7-5.6-6-5.6C987.3,231,984.9,233.3,984.6,236.6z"/>
	<path class="st0" d="M1003.3,222.3h2.3V246h-2.3V222.3z"/>
	<path class="st0" d="M1012,222.3h2.3V246h-2.3V222.3z"/>
	<path class="st0" d="M1035.2,238.3h-14.1c0.3,3.5,2.9,5.9,6.6,5.9c2.1,0,3.9-0.7,5.2-2.2l1.3,1.5c-1.5,1.8-3.8,2.8-6.5,2.8
		c-5.3,0-8.8-3.6-8.8-8.6c0-5,3.5-8.5,8.2-8.5c4.7,0,8.2,3.5,8.2,8.5C1035.3,237.8,1035.2,238,1035.2,238.3z M1021.1,236.6h11.9
		c-0.3-3.3-2.7-5.6-6-5.6C1023.8,231,1021.4,233.3,1021.1,236.6z"/>
	<path class="st0" d="M1055.4,236.2v9.8h-2.3v-9.5c0-3.6-1.9-5.4-5.1-5.4c-3.6,0-5.9,2.2-5.9,6.1v8.8h-2.3v-16.8h2.2v3.1
		c1.2-2.1,3.5-3.2,6.4-3.2C1052.6,229,1055.4,231.4,1055.4,236.2z"/>
	<path class="st0" d="M1070.4,245c-0.9,0.8-2.2,1.2-3.6,1.2c-3.2,0-4.9-1.8-4.9-4.9v-10.2h-3v-1.9h3v-3.7h2.3v3.7h5.1v1.9h-5.1v10.1
		c0,2,1,3.1,2.9,3.1c0.9,0,1.9-0.3,2.5-0.9L1070.4,245z"/>
	<path class="st0" d="M1081.3,243.3l0.9-1.8c1.6,1.6,4.4,2.7,7.4,2.7c4.2,0,6-1.8,6-4c0-6.1-13.8-2.4-13.8-10.7
		c0-3.3,2.6-6.1,8.3-6.1c2.5,0,5.2,0.7,6.9,2l-0.8,1.9c-1.9-1.3-4.2-1.9-6.1-1.9c-4.1,0-5.9,1.8-5.9,4.1c0,6.1,13.8,2.4,13.8,10.6
		c0,3.3-2.6,6.1-8.3,6.1C1086.2,246.2,1082.9,245,1081.3,243.3z"/>
	<path class="st0" d="M1117.3,238.3h-14.1c0.3,3.5,2.9,5.9,6.6,5.9c2.1,0,3.9-0.7,5.2-2.2l1.3,1.5c-1.5,1.8-3.8,2.8-6.5,2.8
		c-5.3,0-8.8-3.6-8.8-8.6c0-5,3.5-8.5,8.2-8.5s8.2,3.5,8.2,8.5C1117.3,237.8,1117.3,238,1117.3,238.3z M1103.2,236.6h11.9
		c-0.3-3.3-2.7-5.6-6-5.6C1105.9,231,1103.5,233.3,1103.2,236.6z"/>
	<path class="st0" d="M1130.4,229v2.2c-0.2,0-0.4,0-0.5,0c-3.5,0-5.7,2.2-5.7,6.2v8.6h-2.3v-16.8h2.2v3.3
		C1125.2,230.2,1127.3,229,1130.4,229z"/>
	<path class="st0" d="M1149.4,229.2l-7.5,16.8h-2.3l-7.5-16.8h2.4l6.3,14.3l6.4-14.3H1149.4z"/>
	<path class="st0" d="M1152.1,223.9c0-0.9,0.7-1.6,1.7-1.6c0.9,0,1.7,0.7,1.7,1.6c0,0.9-0.7,1.7-1.7,1.7
		C1152.8,225.5,1152.1,224.8,1152.1,223.9z M1152.6,229.2h2.3V246h-2.3V229.2z"/>
	<path class="st0" d="M1159.5,237.6c0-5,3.7-8.5,8.7-8.5c2.8,0,5.3,1.1,6.6,3.3l-1.7,1.1c-1.2-1.7-2.9-2.5-4.9-2.5
		c-3.7,0-6.4,2.6-6.4,6.6c0,4,2.7,6.6,6.4,6.6c1.9,0,3.7-0.8,4.9-2.5l1.7,1.1c-1.3,2.2-3.7,3.3-6.6,3.3
		C1163.2,246.2,1159.5,242.6,1159.5,237.6z"/>
	<path class="st0" d="M1193.6,238.3h-14.1c0.3,3.5,2.9,5.9,6.6,5.9c2.1,0,3.9-0.7,5.2-2.2l1.3,1.5c-1.5,1.8-3.8,2.8-6.5,2.8
		c-5.3,0-8.8-3.6-8.8-8.6c0-5,3.5-8.5,8.2-8.5s8.2,3.5,8.2,8.5C1193.6,237.8,1193.6,238,1193.6,238.3z M1179.5,236.6h11.9
		c-0.3-3.3-2.7-5.6-6-5.6C1182.2,231,1179.8,233.3,1179.5,236.6z"/>
	<path class="st0" d="M1196.8,244.4c0-1,0.8-1.7,1.7-1.7s1.7,0.7,1.7,1.7c0,1-0.8,1.8-1.7,1.8S1196.8,245.4,1196.8,244.4z"/>
</g>
<g>
	<path class="st0" d="M99.8,131.3c13.5-2.7,32.7-4.3,51.1-4.3c28.4,0,46.8,5.2,59.6,16.8c10.4,9.1,16.2,23.2,16.2,39
		c0,27.1-17.1,45.1-38.8,52.4v0.9c15.9,5.5,25.4,20.1,30.3,41.5c6.7,28.7,11.6,48.5,15.9,56.4h-27.5c-3.4-5.8-7.9-23.5-13.8-49.1
		c-6.1-28.4-17.1-39-41.3-39.9h-25.1v89H99.8C99.8,334,99.8,131.3,99.8,131.3z M126.4,224.9h27.2c28.4,0,46.5-15.6,46.5-39
		c0-26.5-19.3-38.1-47.4-38.4c-12.8,0-22,1.2-26.3,2.4C126.4,149.9,126.4,224.9,126.4,224.9z"/>
</g>
<rect y="0.2" class="st0" width="22.8" height="85.4"/>
<rect x="66" y="0.2" class="st0" width="22.8" height="85.4"/>
<rect x="132.3" y="0.2" class="st0" width="22.8" height="85.4"/>
<rect x="63.2" y="118.2" class="st0" width="27.6" height="215.8"/>
<path class="st0" d="M140.1,119.8H15c-8.3,0-15-6.7-15-15v-9.8h155.1v9.8C155.1,113.1,148.4,119.8,140.1,119.8z"/>
</svg>
