<?xml version="1.0" encoding="utf-8"?>
<!-- Generator: Adobe Illustrator 23.0.1, SVG Export Plug-In . SVG Version: 6.00 Build 0)  -->
<svg version="1.1" id="Layer_1" xmlns="http://www.w3.org/2000/svg" xmlns:xlink="http://www.w3.org/1999/xlink" x="0px" y="0px"
	 viewBox="0 0 164 235" style="enable-background:new 0 0 164 235;" xml:space="preserve">
<style type="text/css">
	.st0{fill:#E7BCA8;}
</style>
<g>
	<path class="st0" d="M71.65,93.73c9.26-1.91,22.51-2.97,35.13-2.97c19.56,0,32.19,3.61,41.02,11.68
		c7.15,6.37,11.15,16.14,11.15,27.19c0,18.91-11.78,31.44-26.72,36.54v0.64c10.94,3.82,17.46,14.02,20.83,28.89
		c4.63,19.97,7.99,33.78,10.94,39.3h-18.93c-2.31-4.04-5.47-16.36-9.47-34.2c-4.21-19.76-11.78-27.19-28.4-27.83H89.95V235h-18.3
		V93.73z M89.95,158.95h18.72c19.56,0,31.98-10.83,31.98-27.19c0-18.48-13.25-26.55-32.61-26.77c-8.84,0-15.15,0.85-18.09,1.7
		V158.95z"/>
</g>
<rect class="st0" width="16.1" height="60.31"/>
<rect x="46.6" class="st0" width="16.1" height="60.31"/>
<rect x="93.46" class="st0" width="16.1" height="60.31"/>
<rect x="-21.43" y="149.41" transform="matrix(6.033552e-15 1 -1 6.033552e-15 213.5697 104.7667)" class="st0" width="151.66" height="19.52"/>
<path class="st0" d="M94.56,84.52H15c-8.28,0-15-6.72-15-15l0-2.49h109.56v2.49C109.56,77.8,102.85,84.52,94.56,84.52z"/>
</svg>
