<?xml version="1.0" encoding="utf-8"?>
<!-- Generator: Adobe Illustrator 23.0.1, SVG Export Plug-In . SVG Version: 6.00 Build 0)  -->
<svg version="1.1" id="Layer_1" xmlns="http://www.w3.org/2000/svg" xmlns:xlink="http://www.w3.org/1999/xlink" x="0px" y="0px"
	 viewBox="0 0 1202.93 334" style="enable-background:new 0 0 1202.93 334;" xml:space="preserve">
<style type="text/css">
	.st0{fill:#FFFFFF;}
	.st1{fill:none;}
</style>
<rect x="257.02" class="st0" width="21" height="334"/>
<rect x="481.92" y="171.74" class="st1" width="24.18" height="5.65"/>
<g>
	<path class="st0" d="M325.43,145.41h-22.4v-13.2h61v13.2h-22.4v56.8h-16.2V145.41z"/>
	<path class="st0" d="M436.93,132.21v70h-16.2v-28.7h-31.8v28.7h-16.2v-70h16.2v27.6h31.8v-27.6H436.93z"/>
	<path class="st0" d="M507.73,189.22v13h-54.2v-70h52.9v13h-36.8v15.2h32.5v12.6h-32.5v16.2H507.73z"/>
</g>
<g>
	<path class="st0" d="M576.83,202.22l-16-22.5c-1.8,0.2-3.6,0.3-5.6,0.3h-18.8v22.2h-7.4v-70h26.2c17.8,0,28.6,9,28.6,24
		c0,11-5.8,18.7-16,22l17.1,24H576.83z M576.43,156.21c0-11.2-7.4-17.6-21.4-17.6h-18.6v35.1h18.6
		C569.03,173.72,576.43,167.22,576.43,156.21z"/>
	<path class="st0" d="M650.83,195.82v6.4h-49.5v-70h48v6.4h-40.6v24.9h36.2v6.3h-36.2v26H650.83z"/>
	<path class="st0" d="M661.53,193.72l2.9-5.7c5,4.9,13.9,8.5,23.1,8.5c13.1,0,18.8-5.5,18.8-12.4c0-19.2-43.1-7.4-43.1-33.3
		c0-10.3,8-19.2,25.8-19.2c7.9,0,16.1,2.3,21.7,6.2l-2.5,5.9c-6-3.9-13-5.8-19.2-5.8c-12.8,0-18.5,5.7-18.5,12.7
		c0,19.2,43.1,7.6,43.1,33.1c0,10.3-8.2,19.1-26.1,19.1C677.03,202.82,666.73,199.12,661.53,193.72z"/>
	<path class="st0" d="M742.33,138.61h-24.6v-6.4h56.6v6.4h-24.6v63.6h-7.4V138.61z"/>
	<path class="st0" d="M826.53,183.52h-39l-8.4,18.7h-7.7l32-70h7.3l32,70h-7.8L826.53,183.52z M823.83,177.52l-16.8-37.6l-16.8,37.6
		H823.83z"/>
	<path class="st0" d="M852.23,172.32v-40.1h7.4v39.8c0,16.6,7.8,24.2,21.4,24.2c13.7,0,21.5-7.6,21.5-24.2v-39.8h7.2v40.1
		c0,20.1-10.8,30.5-28.7,30.5S852.23,192.42,852.23,172.32z"/>
	<path class="st0" d="M979.83,202.22l-16-22.5c-1.8,0.2-3.6,0.3-5.6,0.3h-18.8v22.2h-7.4v-70h26.2c17.8,0,28.6,9,28.6,24
		c0,11-5.8,18.7-16,22l17.1,24H979.83z M979.43,156.21c0-11.2-7.4-17.6-21.4-17.6h-18.6v35.1h18.6
		C972.03,173.72,979.43,167.22,979.43,156.21z"/>
	<path class="st0" d="M1048.23,183.52h-39l-8.4,18.7h-7.7l32-70h7.3l32,70h-7.8L1048.23,183.52z M1045.53,177.52l-16.8-37.6
		l-16.8,37.6H1045.53z"/>
	<path class="st0" d="M1134.53,132.21v70h-6.1l-45-56.8v56.8h-7.4v-70h6.1l45.1,56.8v-56.8H1134.53z"/>
	<path class="st0" d="M1170.93,138.61h-24.6v-6.4h56.6v6.4h-24.6v63.6h-7.4V138.61z"/>
</g>
<g>
	<path class="st0" d="M737.69,225.65v8.8h11.58v2.05h-11.58v9.5h-2.37v-22.4h15.36v2.05H737.69z"/>
	<path class="st0" d="M763.26,229.04v2.21c-0.19,0-0.38-0.03-0.54-0.03c-3.52,0-5.66,2.24-5.66,6.21V246h-2.27v-16.83h2.18v3.3
		C758.01,230.23,760.15,229.04,763.26,229.04z"/>
	<path class="st0" d="M781.85,238.29h-14.08c0.26,3.52,2.94,5.86,6.62,5.86c2.05,0,3.87-0.74,5.15-2.21l1.28,1.47
		c-1.5,1.79-3.84,2.75-6.5,2.75c-5.25,0-8.83-3.58-8.83-8.58c0-4.99,3.49-8.54,8.22-8.54c4.74,0,8.16,3.49,8.16,8.54
		C781.88,237.78,781.85,238.03,781.85,238.29z M767.77,236.59h11.94c-0.29-3.3-2.69-5.6-5.98-5.6
		C770.46,230.99,768.06,233.3,767.77,236.59z"/>
	<path class="st0" d="M784.19,244.08l1.02-1.79c1.34,1.06,3.62,1.89,5.98,1.89c3.2,0,4.51-1.09,4.51-2.75
		c0-4.38-10.91-0.93-10.91-7.58c0-2.75,2.37-4.8,6.66-4.8c2.18,0,4.54,0.61,5.95,1.57l-0.99,1.82c-1.47-1.02-3.23-1.44-4.96-1.44
		c-3.04,0-4.38,1.18-4.38,2.78c0,4.54,10.91,1.12,10.91,7.58c0,2.91-2.56,4.8-6.94,4.8C788.25,246.16,785.56,245.26,784.19,244.08z"
		/>
	<path class="st0" d="M817.66,236.24V246h-2.27v-9.54c0-3.55-1.86-5.38-5.06-5.38c-3.62,0-5.89,2.24-5.89,6.08V246h-2.27v-23.74
		h2.27v9.86c1.25-1.95,3.46-3.07,6.3-3.07C814.84,229.04,817.66,231.41,817.66,236.24z"/>
	<path class="st0" d="M835.06,225.65v8.8h11.58v2.05h-11.58v9.5h-2.37v-22.4h15.36v2.05H835.06z"/>
	<path class="st0" d="M850.2,237.58c0-4.99,3.65-8.54,8.58-8.54s8.54,3.55,8.54,8.54c0,4.99-3.62,8.58-8.54,8.58
		S850.2,242.58,850.2,237.58z M865.02,237.58c0-3.94-2.66-6.56-6.24-6.56c-3.58,0-6.27,2.62-6.27,6.56c0,3.94,2.69,6.56,6.27,6.56
		C862.36,244.14,865.02,241.52,865.02,237.58z"/>
	<path class="st0" d="M870.26,237.58c0-4.99,3.65-8.54,8.58-8.54s8.54,3.55,8.54,8.54c0,4.99-3.62,8.58-8.54,8.58
		S870.26,242.58,870.26,237.58z M885.08,237.58c0-3.94-2.66-6.56-6.24-6.56c-3.58,0-6.27,2.62-6.27,6.56c0,3.94,2.69,6.56,6.27,6.56
		C882.42,244.14,885.08,241.52,885.08,237.58z"/>
	<path class="st0" d="M907.38,222.26V246h-2.18v-3.33c-1.38,2.27-3.71,3.49-6.5,3.49c-4.8,0-8.38-3.49-8.38-8.58
		c0-5.09,3.58-8.54,8.38-8.54c2.69,0,4.99,1.15,6.4,3.33v-10.11H907.38z M905.14,237.58c0-3.94-2.69-6.56-6.24-6.56
		c-3.58,0-6.27,2.62-6.27,6.56c0,3.94,2.69,6.56,6.27,6.56C902.46,244.14,905.14,241.52,905.14,237.58z"/>
	<path class="st0" d="M912.25,244.4c0-0.99,0.77-1.73,1.7-1.73s1.73,0.74,1.73,1.73c0,0.99-0.8,1.76-1.73,1.76
		S912.25,245.39,912.25,244.4z"/>
	<path class="st0" d="M945.21,243.95V246h-15.84v-22.4h15.36v2.05h-12.99v7.97h11.58v2.02h-11.58v8.32H945.21z"/>
	<path class="st0" d="M960.54,246l-5.34-7.04l-5.38,7.04h-2.56l6.66-8.64l-6.34-8.19h2.56l5.06,6.59l5.06-6.59h2.5l-6.33,8.19
		l6.72,8.64H960.54z"/>
	<path class="st0" d="M964.6,237.58c0-5.02,3.65-8.54,8.67-8.54c2.85,0,5.25,1.12,6.59,3.33l-1.7,1.15c-1.15-1.7-2.94-2.5-4.9-2.5
		c-3.68,0-6.37,2.62-6.37,6.56c0,3.97,2.69,6.56,6.37,6.56c1.95,0,3.74-0.77,4.9-2.46l1.7,1.15c-1.34,2.18-3.74,3.33-6.59,3.33
		C968.25,246.16,964.6,242.61,964.6,237.58z"/>
	<path class="st0" d="M998.68,238.29H984.6c0.26,3.52,2.94,5.86,6.62,5.86c2.05,0,3.87-0.74,5.15-2.21l1.28,1.47
		c-1.5,1.79-3.84,2.75-6.5,2.75c-5.25,0-8.83-3.58-8.83-8.58c0-4.99,3.49-8.54,8.22-8.54s8.16,3.49,8.16,8.54
		C998.71,237.78,998.68,238.03,998.68,238.29z M984.6,236.59h11.93c-0.29-3.3-2.69-5.6-5.98-5.6
		C987.29,230.99,984.89,233.3,984.6,236.59z"/>
	<path class="st0" d="M1003.35,222.26h2.27V246h-2.27V222.26z"/>
	<path class="st0" d="M1011.96,222.26h2.27V246h-2.27V222.26z"/>
	<path class="st0" d="M1035.22,238.29h-14.08c0.26,3.52,2.94,5.86,6.62,5.86c2.05,0,3.87-0.74,5.15-2.21l1.28,1.47
		c-1.5,1.79-3.84,2.75-6.5,2.75c-5.25,0-8.83-3.58-8.83-8.58c0-4.99,3.49-8.54,8.22-8.54s8.16,3.49,8.16,8.54
		C1035.25,237.78,1035.22,238.03,1035.22,238.29z M1021.14,236.59h11.93c-0.29-3.3-2.69-5.6-5.98-5.6
		C1023.83,230.99,1021.43,233.3,1021.14,236.59z"/>
	<path class="st0" d="M1055.38,236.24V246h-2.27v-9.54c0-3.55-1.86-5.38-5.06-5.38c-3.62,0-5.89,2.24-5.89,6.08V246h-2.27v-16.83
		h2.18v3.1c1.22-2.05,3.49-3.23,6.4-3.23C1052.57,229.04,1055.38,231.41,1055.38,236.24z"/>
	<path class="st0" d="M1070.42,244.98c-0.9,0.8-2.24,1.18-3.55,1.18c-3.17,0-4.93-1.79-4.93-4.9v-10.18h-3.01v-1.92h3.01v-3.68h2.27
		v3.68h5.12v1.92h-5.12v10.05c0,1.98,1.02,3.07,2.91,3.07c0.93,0,1.86-0.29,2.5-0.86L1070.42,244.98z"/>
	<path class="st0" d="M1081.27,243.28l0.93-1.82c1.6,1.57,4.45,2.72,7.39,2.72c4.19,0,6.02-1.76,6.02-3.97
		c0-6.14-13.79-2.37-13.79-10.66c0-3.29,2.56-6.14,8.26-6.14c2.53,0,5.15,0.74,6.94,1.98l-0.8,1.89c-1.92-1.25-4.16-1.86-6.14-1.86
		c-4.1,0-5.92,1.82-5.92,4.06c0,6.14,13.79,2.43,13.79,10.59c0,3.3-2.62,6.11-8.35,6.11
		C1086.23,246.19,1082.93,245.01,1081.27,243.28z"/>
	<path class="st0" d="M1117.27,238.29h-14.08c0.26,3.52,2.94,5.86,6.62,5.86c2.05,0,3.87-0.74,5.15-2.21l1.28,1.47
		c-1.5,1.79-3.84,2.75-6.5,2.75c-5.25,0-8.83-3.58-8.83-8.58c0-4.99,3.49-8.54,8.22-8.54s8.16,3.49,8.16,8.54
		C1117.3,237.78,1117.27,238.03,1117.27,238.29z M1103.19,236.59h11.93c-0.29-3.3-2.69-5.6-5.98-5.6
		C1105.88,230.99,1103.48,233.3,1103.19,236.59z"/>
	<path class="st0" d="M1130.42,229.04v2.21c-0.19,0-0.38-0.03-0.54-0.03c-3.52,0-5.66,2.24-5.66,6.21V246h-2.27v-16.83h2.18v3.3
		C1125.17,230.23,1127.32,229.04,1130.42,229.04z"/>
	<path class="st0" d="M1149.4,229.17l-7.49,16.83h-2.34l-7.46-16.83h2.37l6.3,14.33l6.37-14.33H1149.4z"/>
	<path class="st0" d="M1152.09,223.86c0-0.86,0.74-1.6,1.66-1.6c0.93,0,1.66,0.7,1.66,1.57c0,0.93-0.7,1.66-1.66,1.66
		C1152.82,225.49,1152.09,224.75,1152.09,223.86z M1152.6,229.17h2.27V246h-2.27V229.17z"/>
	<path class="st0" d="M1159.51,237.58c0-5.02,3.65-8.54,8.67-8.54c2.85,0,5.25,1.12,6.59,3.33l-1.7,1.15c-1.15-1.7-2.94-2.5-4.9-2.5
		c-3.68,0-6.37,2.62-6.37,6.56c0,3.97,2.69,6.56,6.37,6.56c1.95,0,3.74-0.77,4.9-2.46l1.7,1.15c-1.34,2.18-3.74,3.33-6.59,3.33
		C1163.16,246.16,1159.51,242.61,1159.51,237.58z"/>
	<path class="st0" d="M1193.59,238.29h-14.08c0.26,3.52,2.94,5.86,6.62,5.86c2.05,0,3.87-0.74,5.15-2.21l1.28,1.47
		c-1.5,1.79-3.84,2.75-6.5,2.75c-5.25,0-8.83-3.58-8.83-8.58c0-4.99,3.49-8.54,8.22-8.54s8.16,3.49,8.16,8.54
		C1193.62,237.78,1193.59,238.03,1193.59,238.29z M1179.51,236.59h11.93c-0.29-3.3-2.69-5.6-5.98-5.6
		C1182.2,230.99,1179.8,233.3,1179.51,236.59z"/>
	<path class="st0" d="M1196.79,244.4c0-0.99,0.77-1.73,1.7-1.73s1.73,0.74,1.73,1.73c0,0.99-0.8,1.76-1.73,1.76
		S1196.79,245.39,1196.79,244.4z"/>
</g>
<g>
	<path class="st0" d="M99.78,131.27c13.46-2.74,32.72-4.27,51.07-4.27c28.44,0,46.79,5.18,59.63,16.77
		c10.4,9.15,16.21,23.17,16.21,39.02c0,27.13-17.13,45.12-38.84,52.43v0.91c15.9,5.49,25.38,20.12,30.27,41.46
		c6.73,28.66,11.62,48.47,15.9,56.4H206.5c-3.36-5.79-7.95-23.47-13.76-49.08c-6.12-28.35-17.12-39.02-41.28-39.94h-25.08V334h-26.6
		V131.27z M126.38,224.86h27.22c28.44,0,46.48-15.55,46.48-39.02c0-26.52-19.26-38.11-47.4-38.41c-12.84,0-22.02,1.22-26.3,2.44
		V224.86z"/>
</g>
<rect y="0.17" class="st0" width="22.8" height="85.38"/>
<rect x="65.98" y="0.17" class="st0" width="22.8" height="85.38"/>
<rect x="132.32" y="0.17" class="st0" width="22.8" height="85.38"/>
<rect x="-30.9" y="212.26" transform="matrix(4.257195e-15 1 -1 4.257195e-15 303.1023 149.0592)" class="st0" width="215.84" height="27.63"/>
<path class="st0" d="M140.12,119.83H15c-8.28,0-15-6.72-15-15l0-9.76h155.12v9.76C155.12,113.12,148.4,119.83,140.12,119.83z"/>
</svg>
